# xmcd
#
# Track frame offsets:
#	183
#	11443
#	21713
#	31893
#	41483
#	52623
#	61703
#	82955
#	94848
#	103665
#	115433
#	130230
#	140688
#	154920
#	164428
#	179443
#
# Disc length: 2520 seconds
#
# Revision: 1
# Processed by: cddbd v1.5.2PL0 Copyright (c) Steve Scherf et al.
# Submitted via: audiograbber 1.83.01
#
DISCID=cf09d610
DTITLE=Isley Brothers - 16 Greatest Hits
DYEAR=1900
DGENRE=
TTITLE0=Twist and Shout
TTITLE1=Nobody But Me
TTITLE2=You Better Come Home
TTITLE3=I Say Love
TTITLE4=Crazy Love
TTITLE5=Rubberleg Twist
TTITLE6=This Old Heart of Mine
TTITLE7=Time After Time
TTITLE8=I'm Laughing to Keep from Crying
TTITLE9=Twistin' with Linda
TTITLE10=Right Now
TTITLE11=Never Leave Me Baby
TTITLE12=Don't You Feel
TTITLE13=Let's Twist Again
TTITLE14=It's Your Thing
TTITLE15=The Snake
EXTD=
EXTT0=
EXTT1=
EXTT2=
EXTT3=
EXTT4=
EXTT5=
EXTT6=
EXTT7=
EXTT8=
EXTT9=
EXTT10=
EXTT11=
EXTT12=
EXTT13=
EXTT14=
EXTT15=
PLAYORDER=
